<svg width="140" height="41" viewBox="0 0 140 41" fill="none" xmlns="http://www.w3.org/2000/svg">
<g clip-path="url(#clip0_6467_5485)">
<path d="M55.8501 14.952C55.8501 15.7751 55.9391 16.4425 56.0948 16.932C56.2728 17.4214 56.4952 17.9553 56.8067 18.5337C56.9179 18.7117 56.9624 18.8897 56.9624 19.0454C56.9624 19.2679 56.829 19.4903 56.5397 19.7128L55.1382 20.6472C54.938 20.7807 54.7377 20.8474 54.5598 20.8474C54.3373 20.8474 54.1148 20.7362 53.8924 20.5359C53.5809 20.2022 53.314 19.8463 53.0915 19.4903C52.869 19.1122 52.6465 18.6895 52.4018 18.1778C50.6666 20.2245 48.4864 21.2478 45.8613 21.2478C43.9925 21.2478 42.502 20.7139 41.4119 19.6461C40.3218 18.5782 39.7656 17.1544 39.7656 15.3747C39.7656 13.4837 40.433 11.9487 41.7901 10.7918C43.1471 9.635 44.9491 9.05658 47.2406 9.05658C47.997 9.05658 48.7756 9.12332 49.5987 9.23455C50.4219 9.34579 51.2672 9.52376 52.1571 9.72399V8.09997C52.1571 6.40921 51.8012 5.23012 51.1115 4.54047C50.3996 3.85082 49.1983 3.51712 47.4853 3.51712C46.7066 3.51712 45.9058 3.6061 45.0826 3.80632C44.2595 4.00655 43.4586 4.25126 42.68 4.56272C42.324 4.71845 42.057 4.80743 41.9013 4.85193C41.7456 4.89642 41.6344 4.91867 41.5454 4.91867C41.2339 4.91867 41.0782 4.6962 41.0782 4.22901V3.13892C41.0782 2.78297 41.1227 2.51601 41.2339 2.36028C41.3452 2.20455 41.5454 2.04882 41.8568 1.8931C42.6355 1.49265 43.5698 1.15895 44.6599 0.891988C45.75 0.602779 46.9069 0.469298 48.1304 0.469298C50.7778 0.469298 52.7133 1.06996 53.9591 2.27129C55.1827 3.47262 55.8056 5.29686 55.8056 7.74402V14.952H55.8501ZM46.8179 18.3335C47.552 18.3335 48.3084 18.2 49.1093 17.9331C49.9102 17.6661 50.6221 17.1767 51.2227 16.5093C51.5787 16.0866 51.8457 15.6194 51.9791 15.0855C52.1126 14.5515 52.2016 13.9064 52.2016 13.15V12.2156C51.5564 12.0599 50.8668 11.9264 50.1549 11.8374C49.443 11.7484 48.7533 11.704 48.0637 11.704C46.5732 11.704 45.4831 11.9932 44.7489 12.5938C44.0148 13.1945 43.6588 14.0399 43.6588 15.1522C43.6588 16.1978 43.9258 16.9765 44.482 17.5104C45.0159 18.0666 45.7945 18.3335 46.8179 18.3335ZM64.6821 20.7362C64.2816 20.7362 64.0147 20.6694 63.8367 20.5137C63.6587 20.3802 63.503 20.0688 63.3695 19.6461L58.1415 2.44927C58.008 2.00433 57.9413 1.71512 57.9413 1.55939C57.9413 1.20344 58.1193 1.00322 58.4752 1.00322H60.6554C61.0781 1.00322 61.3673 1.06996 61.523 1.22569C61.701 1.35917 61.8345 1.67063 61.968 2.09332L65.7054 16.8207L69.1759 2.09332C69.2872 1.64838 69.4207 1.35917 69.5986 1.22569C69.7766 1.09221 70.0881 1.00322 70.4885 1.00322H72.2683C72.6909 1.00322 72.9802 1.06996 73.1581 1.22569C73.3361 1.35917 73.4918 1.67063 73.5808 2.09332L77.0958 16.9987L80.9445 2.09332C81.078 1.64838 81.2337 1.35917 81.3895 1.22569C81.5674 1.09221 81.8566 1.00322 82.2571 1.00322H84.326C84.682 1.00322 84.8822 1.1812 84.8822 1.55939C84.8822 1.67063 84.86 1.78186 84.8377 1.91534C84.8155 2.04882 84.771 2.2268 84.682 2.47151L79.3205 19.6683C79.187 20.1133 79.0313 20.4025 78.8533 20.5359C78.6753 20.6694 78.3861 20.7584 78.0079 20.7584H76.0947C75.672 20.7584 75.3828 20.6917 75.2048 20.5359C75.0269 20.3802 74.8711 20.091 74.7822 19.6461L71.3339 5.29686L67.9079 19.6238C67.7966 20.0688 67.6632 20.358 67.4852 20.5137C67.3072 20.6694 66.9958 20.7362 66.5953 20.7362H64.6821ZM93.2693 21.3368C92.1124 21.3368 90.9556 21.2034 89.8433 20.9364C88.7309 20.6694 87.8633 20.3802 87.2849 20.0465C86.9289 19.8463 86.6842 19.6238 86.5952 19.4236C86.5062 19.2234 86.4617 19.0009 86.4617 18.8007V17.6661C86.4617 17.1989 86.6397 16.9765 86.9734 16.9765C87.1069 16.9765 87.2404 16.9987 87.3739 17.0432C87.5073 17.0877 87.7076 17.1767 87.93 17.2657C88.6864 17.5994 89.5096 17.8663 90.3772 18.0443C91.2671 18.2223 92.1347 18.3113 93.0246 18.3113C94.4261 18.3113 95.5162 18.0665 96.2726 17.5771C97.029 17.0877 97.4294 16.3758 97.4294 15.4637C97.4294 14.8408 97.2292 14.3291 96.8288 13.9064C96.4283 13.4837 95.6719 13.1055 94.5818 12.7496L91.356 11.7484C89.732 11.2368 88.5307 10.4804 87.7966 9.47927C87.0624 8.50041 86.6842 7.41031 86.6842 6.25348C86.6842 5.31911 86.8844 4.49598 87.2849 3.78408C87.6853 3.07218 88.2192 2.44927 88.8866 1.95984C89.554 1.44816 90.3104 1.06996 91.2003 0.803001C92.0902 0.536039 93.0246 0.424805 94.0034 0.424805C94.4928 0.424805 95.0045 0.447052 95.494 0.513792C96.0056 0.580533 96.4728 0.66952 96.94 0.758507C97.3849 0.869741 97.8076 0.980976 98.2081 1.11446C98.6085 1.24794 98.92 1.38142 99.1424 1.5149C99.4539 1.69287 99.6764 1.87085 99.8098 2.07107C99.9433 2.24905 100.01 2.49376 100.01 2.80522V3.85082C100.01 4.318 99.8321 4.56272 99.4984 4.56272C99.3204 4.56272 99.0312 4.47373 98.653 4.29576C97.3849 3.71734 95.9611 3.42813 94.3816 3.42813C93.1135 3.42813 92.1124 3.62835 91.4228 4.05104C90.7331 4.47373 90.3772 5.11889 90.3772 6.03101C90.3772 6.65392 90.5997 7.18785 91.0446 7.61054C91.4895 8.03323 92.3127 8.45592 93.4917 8.83411L96.6508 9.83522C98.2526 10.3469 99.4094 11.0588 100.099 11.9709C100.789 12.883 101.122 13.9286 101.122 15.0855C101.122 16.0421 100.922 16.9097 100.544 17.6661C100.144 18.4225 99.6096 19.0899 98.92 19.6238C98.2303 20.18 97.4072 20.5804 96.4506 20.8697C95.4495 21.1811 94.4039 21.3368 93.2693 21.3368Z" fill="#181D26"/>
<path fill-rule="evenodd" clip-rule="evenodd" d="M97.474 32.1223C90.1548 37.5283 79.5208 40.3982 70.3774 40.3982C57.5632 40.3982 46.0171 35.6596 37.2963 27.7842C36.6067 27.1613 37.2296 26.3159 38.0527 26.8054C47.4854 32.2781 59.1205 35.5929 71.156 35.5929C79.2761 35.5929 88.1971 33.9021 96.4062 30.4316C97.6298 29.8754 98.6754 31.2325 97.474 32.1223Z" fill="#181D26"/>
<path fill-rule="evenodd" clip-rule="evenodd" d="M100.52 28.6515C99.5859 27.4501 94.3356 28.073 91.9552 28.3623C91.2433 28.4512 91.1321 27.8283 91.7772 27.3611C95.9596 24.4246 102.834 25.2699 103.635 26.2488C104.436 27.2499 103.412 34.1242 99.4969 37.4167C98.8962 37.9284 98.3178 37.6614 98.5848 36.994C99.4746 34.7916 101.455 29.8305 100.52 28.6515Z" fill="#181D26"/>
</g>
<defs>
<clipPath id="clip0_6467_5485">
<rect width="140" height="40" fill="white" transform="translate(0 0.424805)"/>
</clipPath>
</defs>
</svg>
