<svg width="140" height="41" viewBox="0 0 140 41" fill="none" xmlns="http://www.w3.org/2000/svg">
<path d="M102.825 4.87642C103.042 4.86118 103.234 4.81667 103.403 4.7426C103.572 4.66943 103.707 4.55664 103.807 4.40209C103.907 4.24906 103.958 4.03445 103.958 3.7607C103.958 3.52932 103.912 3.34428 103.823 3.20619C103.733 3.06931 103.617 2.96384 103.474 2.88915C103.332 2.81629 103.168 2.76508 102.983 2.74008C102.904 2.72789 102.825 2.72027 102.746 2.71387H101.012V4.89959H102.137C102.38 4.89959 102.609 4.89227 102.825 4.87642ZM98.7563 8.89059C99.1943 9.3445 99.7119 9.70026 100.309 9.95937C100.904 10.2182 101.551 10.3468 102.247 10.3468C102.934 10.3468 103.572 10.2179 104.163 9.95937C104.755 9.70026 105.269 9.3445 105.708 8.89059C106.145 8.43729 106.489 7.90107 106.737 7.28377C106.985 6.66555 107.11 5.99276 107.11 5.26388C107.11 4.55756 106.985 3.89757 106.737 3.28514C106.656 3.08486 106.561 2.89677 106.459 2.71387H104.774C104.946 3.00591 105.035 3.36928 105.035 3.80764C105.035 4.43044 104.86 4.8877 104.511 5.17669C104.163 5.46721 103.731 5.63914 103.213 5.69218L105.193 8.74793H104.036L102.153 5.77114H101.013V8.74793H99.9369V2.71387H98.0048C97.9036 2.89677 97.8082 3.08486 97.7274 3.28545C97.4799 3.89757 97.3552 4.55756 97.3552 5.26418C97.3552 5.99337 97.4796 6.66615 97.7274 7.28407C97.9749 7.90107 98.3185 8.43729 98.7563 8.89059ZM57.0327 14.5564C55.532 14.5564 54.737 15.7285 54.7202 16.9284H59.5443C59.5443 15.5139 58.6493 14.5564 57.0327 14.5564ZM107.6 2.71387C107.636 2.78855 107.676 2.85989 107.71 2.93671C108.026 3.65492 108.185 4.43074 108.185 5.26388C108.185 6.12079 108.027 6.90881 107.71 7.63281C107.394 8.35377 106.967 8.98235 106.428 9.51522C105.889 10.0484 105.261 10.4636 104.544 10.7587C103.826 11.0541 103.061 11.2022 102.246 11.2022C101.434 11.2022 100.666 11.0544 99.9439 10.7587C99.2208 10.4639 98.5874 10.0484 98.0432 9.51522C97.4997 8.98205 97.0699 8.35346 96.7537 7.63281C96.437 6.90881 96.2779 6.12079 96.2779 5.26388C96.2779 4.43074 96.4367 3.65492 96.7537 2.93671C96.7876 2.85989 96.8281 2.78855 96.8644 2.71387H26.5859L34.895 38.1329C52.3403 26.9138 69.1066 37.6955 69.7809 38.1067H69.7828C69.7843 38.1055 69.7861 38.1046 69.788 38.1037H69.7965C69.7977 38.1046 69.8002 38.1055 69.8014 38.1067H69.8041C70.4772 37.6955 87.2445 26.9138 104.689 38.1329L112.998 2.71387H107.6ZM49.419 24.2172H38.0614V12.3874H43.1676V20.9983H49.419V24.2172ZM64.695 19.3092H54.729C54.729 20.849 56.0325 22.0104 57.7698 22.0104C58.8029 22.0104 59.744 21.6687 60.4089 20.7441H64.3831C63.0842 23.7288 60.5646 24.5775 57.1297 24.5775C52.6625 24.5775 49.504 22.1586 49.504 18.327C49.504 14.2348 52.6152 12.0759 57.1297 12.0759C62.1803 12.0759 64.7126 15.3487 64.7126 18.4989C64.7123 18.7617 64.7327 19.0242 64.695 19.3092ZM73.9396 24.2361H69.6365L63.2116 12.3777H69.0097L72.6965 19.586L72.798 19.8034L72.8903 19.586L76.3384 12.3774H79.82L73.9396 24.2361ZM85.2871 24.2129H80.362V12.3554H85.2871V24.2129ZM88.987 13.8415L87.5033 15.4554H86.8863L87.5664 13.6958H86.2071V11.3495H88.987V13.8415ZM95.4505 24.5507C90.1877 24.5507 89.2299 21.5102 89.2299 20.7569H93.0408C93.0408 21.1995 93.6404 21.7303 94.1464 21.9461C94.5628 22.1244 95.0268 22.1595 95.4609 22.1595C96.534 22.1595 97.4143 21.8992 97.4143 21.2761C97.4143 20.5173 96.5129 20.349 95.5185 20.2064C92.8124 19.8162 89.0199 19.3616 89.0199 16.3346C89.0199 13.5111 92.1028 12.0741 95.3755 12.0741C100.615 12.0741 102.004 14.9765 102.004 15.8169H98.1307C98.1307 15.566 97.9396 15.0844 97.4116 14.8088C97.0199 14.6043 96.444 14.4387 95.8874 14.4387C94.4403 14.4387 93.6261 14.7399 93.6261 15.403C93.6261 15.9447 94.3601 16.2132 95.414 16.394C98.1646 16.8662 102.388 17.0296 102.388 20.3771C102.388 22.0775 100.916 24.5507 95.4505 24.5507Z" fill="#181D26"/>
</svg>
