<svg width="132" height="41" viewBox="0 0 132 41" fill="none" xmlns="http://www.w3.org/2000/svg">
<g clip-path="url(#clip0_8923_31226)">
<g clip-path="url(#clip1_8923_31226)">
<path fill-rule="evenodd" clip-rule="evenodd" d="M27 -18H105V60H27V-18Z" fill="white"/>
<path fill-rule="evenodd" clip-rule="evenodd" d="M59.5032 19.5258L50.799 19.8357L59.0637 20.295L59.5032 19.5258ZM58.462 21.3548L49.7372 21.6652L58.0326 22.1261L58.462 21.3548ZM57.4208 23.1992L48.7069 23.5052L56.9923 23.9657L57.4208 23.1992ZM56.4011 25.0344L47.6763 25.3451L55.9519 25.8048L56.4011 25.0344ZM67.0666 10.2935L55.9571 10.6889L67.0982 11.308L67.0666 10.2935ZM66.9962 8.47824L57.0161 8.82827L67.0277 9.40248L66.9962 8.47824ZM66.925 6.72729L58.033 7.01986L66.9679 7.51597L66.925 6.72729ZM66.8651 4.92981L59.071 5.1904L66.8958 5.65252L66.8651 4.92981ZM66.8145 3.47668H60.0357L66.8246 3.83683L66.8145 3.47668ZM55.3498 26.8687L46.646 27.1839H55.1721L55.3498 26.8687Z" fill="#181D26"/>
<path fill-rule="evenodd" clip-rule="evenodd" d="M84.8471 3.5354H72.3035L71.9478 4.16505L78.2248 4.49808C78.2985 4.49808 78.2985 4.60248 78.1933 4.60248L71.582 4.82342L70.9443 5.93946L77.1784 6.3077C77.2622 6.31822 77.2415 6.43315 77.1683 6.43315L70.5461 6.65085L69.9298 7.71955L76.1538 8.06513C76.2898 8.07565 76.2898 8.19097 76.1538 8.19097L69.5425 8.42284L68.9149 9.5405L75.1183 9.8962C75.2543 9.90672 75.2441 10.0322 75.1183 10.0322L68.507 10.2677L67.8685 11.3716L74.082 11.7167C74.1759 11.7273 74.1872 11.8426 74.0613 11.8426L55.0113 12.4807L73.0885 13.4851C73.2031 13.4851 73.1929 13.6316 73.0671 13.6316L53.9863 14.3118L72.0635 15.3158C72.1473 15.3158 72.1679 15.4517 72.0421 15.4517L52.9298 16.1421L71.007 17.1464C71.0806 17.157 71.1531 17.2929 70.9969 17.3034L51.9149 17.9825L69.9917 18.9864C70.0439 18.9969 70.0961 19.1329 69.9711 19.1329L60.3674 19.4752L60.3989 20.342L68.9562 20.8175C69.0185 20.828 69.0501 20.9534 68.9347 20.9534L60.4305 21.2557L60.4722 22.2253L67.9 22.638C67.9729 22.6485 68.0044 22.795 67.8786 22.795L60.5138 23.0536L60.5458 24.1175L66.875 24.4691C66.9479 24.4792 66.9689 24.6152 66.8435 24.6152L60.5774 24.839L60.619 26.0092L65.8496 26.2998C65.9233 26.3103 65.9233 26.4361 65.8185 26.4361L60.6401 26.6235L60.6611 27.1265H77.5458C82.023 27.1265 86.0396 23.8625 86.793 21.2679C87.5469 18.6736 87.5469 16.3302 83.9479 15.1588C85.957 14.6983 89.4504 12.4326 90.1412 9.30014C90.7676 6.45419 89.722 3.54592 84.8471 3.5354ZM76.3541 21.7045H71.1656L74.0945 16.5156H77.9444C81.9198 16.5156 79.9944 21.7045 76.3541 21.7045ZM83.0698 10.5728C82.9023 11.2004 81.6462 12.7907 80.0571 12.7907H76.2072L78.6756 8.43903H80.6427C83.1528 8.52279 83.2365 9.94557 83.0698 10.5728ZM103.853 34.6454C103.853 32.6347 102.182 30.9505 100.171 30.9505C98.1081 30.9505 96.4239 32.6614 96.4239 34.7632C96.4218 35.2576 96.5176 35.7475 96.7059 36.2046C96.8941 36.6618 97.171 37.0772 97.5207 37.4267C97.8703 37.7763 98.2857 38.0532 98.7428 38.2414C99.2 38.4296 99.6899 38.5254 100.184 38.5232C101.711 38.5232 103.161 37.4788 103.592 36.0556H101.685C101.306 36.6561 100.811 36.9301 100.131 36.9301C99.2698 36.9301 98.5002 36.3425 98.2517 35.5069H103.761C103.827 35.1027 103.853 34.9064 103.853 34.6454ZM98.1999 34.142C98.448 33.1627 99.2314 32.5359 100.197 32.5359C101.164 32.5359 101.921 33.1498 102.156 34.142H98.1999ZM79.1021 31.2989V31.8852C78.5542 31.2977 77.7603 30.9634 76.9113 30.9634C75.0313 30.9634 73.4285 32.5691 73.4285 34.6584C73.4285 36.6294 74.8464 38.3974 76.9486 38.3974C77.8756 38.3974 78.5805 38.1833 79.2462 37.4262V38.3533H80.8397V31.2989H79.1021ZM77.1561 36.9022C76.5755 36.9022 76.0186 36.6715 75.608 36.2609C75.1974 35.8503 74.9668 35.2934 74.9668 34.7128C74.9668 34.1321 75.1974 33.5752 75.608 33.1646C76.0186 32.7541 76.5755 32.5234 77.1561 32.5234C77.7368 32.5234 78.2937 32.7541 78.7043 33.1646C79.1149 33.5752 79.3455 34.1321 79.3455 34.7128C79.3455 35.2934 79.1149 35.8503 78.7043 36.2609C78.2937 36.6715 77.7368 36.9022 77.1561 36.9022ZM31.6201 30.9501C30.9023 30.9501 30.354 31.1981 29.7531 31.812V31.12H28.147V38.3533H29.8838V34.9453C29.8838 34.0186 29.9619 32.5428 31.2414 32.5428C32.4424 32.5428 32.5731 33.9267 32.5731 34.8146V38.3529H34.3095V34.475C34.3095 33.4565 34.2314 32.9738 33.957 32.3992C33.5524 31.5376 32.5994 30.9501 31.6201 30.9501ZM42.4099 34.6454C42.4099 32.6347 40.7387 30.9505 38.7279 30.9505C36.665 30.9505 34.9808 32.6614 34.9808 34.7632C34.9788 35.2575 35.0746 35.7474 35.2629 36.2045C35.4511 36.6616 35.728 37.0769 36.0776 37.4265C36.4271 37.776 36.8425 38.0529 37.2996 38.2412C37.7567 38.4294 38.2465 38.5253 38.7409 38.5232C40.2685 38.5232 41.7175 37.4788 42.1485 36.0556H40.2426C39.8638 36.6561 39.3677 36.9301 38.6887 36.9301C37.8272 36.9301 37.0567 36.3425 36.8086 35.5069H42.318C42.384 35.1027 42.4099 34.9064 42.4099 34.6454ZM36.7569 34.142C37.0049 33.1627 37.7883 32.5359 38.7546 32.5359C39.721 32.5359 40.4781 33.1498 40.7132 34.142H36.7569ZM70.9807 38.3472H72.7171V28.6986H70.9807V38.3472ZM85.4209 30.9501C84.7026 30.9501 84.1539 31.1981 83.5534 31.812V31.12H81.9473V38.3533H83.6845V34.9453C83.6845 34.0186 83.7626 32.5428 85.0421 32.5428C86.2427 32.5428 86.3738 33.9267 86.3738 34.8146V38.3529H88.1102V34.475C88.1102 33.4565 88.0321 32.9738 87.7577 32.3992C87.3531 31.5376 86.4001 30.9501 85.4209 30.9501ZM92.4449 32.5432C93.2408 32.5432 93.6977 32.8046 94.1291 33.5354H96.0868C95.5518 31.982 94.1813 30.9501 92.5096 30.9501C90.3945 30.9501 88.697 32.6343 88.697 34.7106C88.697 36.7994 90.4074 38.5228 92.5096 38.5228C93.0458 38.52 93.5756 38.406 94.0654 38.188C94.5553 37.97 94.9946 37.6527 95.3556 37.2562C95.7214 36.8516 95.8521 36.6165 96.0868 35.9771H94.1291C93.7236 36.6035 93.202 36.9297 92.5493 36.9297C91.3345 36.9297 90.4341 35.9897 90.4341 34.736C90.4341 33.4703 91.2957 32.5432 92.4449 32.5432ZM49.0471 35.5332L47.8173 31.1204H46.4201L45.1769 35.5332L43.7068 31.1204H42.1748L44.5898 38.3533H45.7022L47.1124 33.6665L48.483 38.3533H49.6504L51.9663 31.1204H50.5306L49.0471 35.5332ZM58.3505 30.9578C57.502 30.9578 56.708 31.292 56.1597 31.8792V28.699H54.4229V38.3472H56.0157V37.4205C56.6817 38.1777 57.3867 38.3913 58.3137 38.3913C60.4159 38.3913 61.8338 36.6238 61.8338 34.6523C61.8342 32.5634 60.231 30.9578 58.3505 30.9578ZM58.1057 36.9022C57.5251 36.9022 56.9682 36.6715 56.5576 36.2609C56.147 35.8503 55.9163 35.2934 55.9163 34.7128C55.9163 34.1321 56.147 33.5752 56.5576 33.1646C56.9682 32.7541 57.5251 32.5234 58.1057 32.5234C58.6864 32.5234 59.2433 32.7541 59.6539 33.1646C60.0645 33.5752 60.2951 34.1321 60.2951 34.7128C60.2951 35.2934 60.0645 35.8503 59.6539 36.2609C59.2433 36.6715 58.6864 36.9022 58.1057 36.9022ZM68.0837 31.2989V31.8852C67.5354 31.2977 66.7419 30.9634 65.8929 30.9634C64.0129 30.9634 62.4092 32.5691 62.4092 34.6584C62.4092 36.6294 63.8276 38.3974 65.9294 38.3974C66.8564 38.3974 67.5613 38.1833 68.2274 37.4262V38.3533H69.8201V31.2989H68.0837ZM66.1382 36.9022C65.5575 36.9022 65.0006 36.6715 64.59 36.2609C64.1794 35.8503 63.9488 35.2934 63.9488 34.7128C63.9488 34.1321 64.1794 33.5752 64.59 33.1646C65.0006 32.7541 65.5575 32.5234 66.1382 32.5234C66.7188 32.5234 67.2757 32.7541 67.6863 33.1646C68.0969 33.5752 68.3276 34.1321 68.3276 34.7128C68.3276 35.2934 68.0969 35.8503 67.6863 36.2609C67.2757 36.6715 66.7188 36.9022 66.1382 36.9022Z" fill="#181D26"/>
</g>
</g>
<defs>
<clipPath id="clip0_8923_31226">
<rect width="132" height="40" fill="white" transform="translate(0 0.424805)"/>
</clipPath>
<clipPath id="clip1_8923_31226">
<rect width="78" height="78" fill="white" transform="translate(27 -18)"/>
</clipPath>
</defs>
</svg>
