<svg width="140" height="41" viewBox="0 0 140 41" fill="none" xmlns="http://www.w3.org/2000/svg">
<g clip-path="url(#clip0_6467_5491)">
<path d="M81.2013 21.0416C81.2013 17.7589 79.8495 14.8623 75.1185 14.8623C73.284 14.8623 71.353 15.2485 69.7116 16.1175L70.484 18.8209C71.6426 18.1451 72.9944 17.7589 74.4426 17.7589C76.8564 17.7589 77.2426 19.1106 77.2426 19.9795V20.1726C72.0289 20.1726 68.7461 22.0071 68.7461 25.6761C68.7461 28.0899 70.6771 30.0209 73.0909 30.0209H73.3806C75.022 30.1175 76.5668 29.3451 77.5323 28.1864H77.6288C77.6288 28.1864 78.2082 30.6968 81.4909 29.7313C81.2013 28.4761 81.2013 27.3175 81.2013 26.1588V21.0416ZM77.3392 24.5175C77.4357 25.9657 76.2771 27.1244 74.9254 27.1244C74.8288 27.1244 74.7323 27.1244 74.6357 27.1244C73.6702 27.2209 72.8013 26.4485 72.7047 25.483C72.7047 25.3864 72.7047 25.2899 72.7047 25.1933C72.7047 23.2623 74.9254 22.683 77.3392 22.683V24.5175Z" fill="#181D26"/>
<path d="M20.7597 10.5186L19.0218 18.822C18.539 21.2358 18.1528 23.1668 17.8632 25.291H17.7666C17.4769 23.0703 17.0907 21.3323 16.608 18.9185L14.7735 10.5186H10.5252L8.5942 18.7254C8.01489 21.2358 7.53213 23.2634 7.24248 25.3875H7.14592C6.85627 23.3599 6.37351 20.8496 5.89075 18.4358C5.89075 18.4358 4.73213 12.5461 4.34593 10.5186H0.0976562C0.0976562 10.5186 3.47696 24.422 4.05627 26.7392C4.73213 29.3461 5.7942 30.3116 9.07696 29.7323L11.2011 21.0427C11.7804 18.9185 12.0701 17.3737 12.4563 15.153H12.5528C12.8425 17.0841 13.1321 19.1117 13.6149 21.0427C13.6149 21.0427 14.4838 25.0013 14.9666 27.0289C15.4494 29.0565 16.608 30.4082 19.7942 29.6358L24.9114 10.5186H20.7597Z" fill="#181D26"/>
<path d="M36.4005 21.0416C36.4005 17.7589 35.0487 14.8623 30.3177 14.8623C28.4832 14.8623 26.5522 15.2485 24.9108 16.1175L25.6832 18.8209C26.8419 18.1451 28.1936 17.7589 29.6419 17.7589C32.0557 17.7589 32.4419 19.1106 32.4419 19.9795V20.1726C27.2281 20.1726 23.9453 22.0071 23.9453 25.6761C23.9453 28.0899 25.8763 30.0209 28.2901 30.0209H28.5798C30.2212 30.1175 31.766 29.3451 32.7315 28.1864H32.8281C32.8281 28.1864 33.4074 30.6968 36.6901 29.7313C36.497 28.5726 36.4005 27.414 36.497 26.2554L36.4005 21.0416ZM32.5384 24.5175C32.635 25.9657 31.4763 27.1244 30.1246 27.1244C30.0281 27.1244 29.9315 27.1244 29.835 27.1244C28.8694 27.2209 28.0005 26.4485 27.9039 25.483C27.9039 25.3864 27.9039 25.2899 27.9039 25.1933C27.9039 23.2623 30.1246 22.683 32.5384 22.683V24.5175Z" fill="#181D26"/>
<path d="M39.0078 29.6358H42.8699V25.5806V10.5186H39.0078V29.6358Z" fill="#181D26"/>
<path d="M97.6171 10.5186H93.8516V24.7116C93.8516 26.6427 94.2378 27.9944 95.0102 28.8634C95.8792 29.6358 97.0378 30.1185 98.1964 30.022C99.1619 30.022 100.127 29.9254 100.996 29.6358V26.6427C100.514 26.7392 100.031 26.8358 99.5481 26.8358C98.1964 26.8358 97.8102 26.0634 97.8102 24.2289V18.822H101.189V15.0565H97.6171V10.5186Z" fill="#181D26"/>
<path d="M87.3799 17.9492H87.2834V15.2457H83.7109V29.6319H87.7661V22.294C87.7661 21.9078 87.7661 21.6181 87.8627 21.2319C88.1523 19.6871 89.504 18.625 91.0489 18.7216C91.4351 18.7216 91.8213 18.7216 92.2075 18.8181V15.0526C91.9178 14.9561 91.6282 14.9561 91.3385 14.9561C89.504 14.9561 87.9592 16.2112 87.3799 17.9492Z" fill="#181D26"/>
<path d="M62.1822 14.9583C61.2167 14.9583 60.1546 15.248 59.3822 15.7308C58.6098 16.2135 58.0305 16.7928 57.5477 17.4687H57.4512C56.7753 15.8273 55.2305 14.7652 53.4926 14.8618C51.8512 14.7652 50.2098 15.6342 49.3408 16.9859V15.1515H45.6719V29.6342H49.5339V21.2342C49.5339 20.848 49.6305 20.4618 49.727 20.0756C50.0167 19.0135 50.9822 18.2411 52.1408 18.2411C53.6857 18.2411 54.4581 19.5928 54.4581 21.5239V29.6342H58.3201V21.0411C58.3201 20.6549 58.4167 20.2687 58.5132 19.8825C58.8029 18.8204 59.7684 18.1446 60.8305 18.1446C62.4719 18.1446 63.2443 19.4963 63.2443 21.717V29.6342H67.1063V21.1377C67.0098 16.6963 64.6925 14.9583 62.1822 14.9583Z" fill="#181D26"/>
<path d="M122.041 3.56543C120.786 3.56543 119.82 4.24129 119.82 5.11026L120.593 13.7034C120.786 14.2827 121.365 14.6689 122.041 14.6689C122.717 14.7654 123.296 14.3792 123.586 13.7034L124.358 5.0137C124.358 4.24129 123.393 3.56543 122.041 3.56543Z" fill="#181D26"/>
<path d="M110.263 10.6155C109.491 10.2293 108.428 10.7121 107.849 11.7741C107.27 12.8362 107.366 14.0914 108.042 14.4776L115.863 18.1465C116.539 18.2431 117.118 17.9534 117.408 17.3741C117.794 16.8914 117.794 16.1189 117.408 15.6362L110.263 10.6155Z" fill="#181D26"/>
<path d="M133.917 10.6125L126.772 15.6332C126.386 16.116 126.289 16.8884 126.772 17.3711C127.062 17.9505 127.641 18.3367 128.317 18.1436L136.138 14.4746C136.91 14.0884 136.91 12.8332 136.331 11.7712C135.751 10.7091 134.593 10.1298 133.917 10.6125Z" fill="#181D26"/>
<path d="M122.041 25.4825C121.365 25.3859 120.786 25.7721 120.593 26.448L119.82 35.0411C119.82 35.91 120.786 36.5859 122.041 36.5859C123.296 36.5859 124.262 35.91 124.262 35.0411L123.489 26.448C123.296 25.7721 122.717 25.3859 122.041 25.4825Z" fill="#181D26"/>
<path d="M136.14 25.5808L128.319 21.9119C127.643 21.8153 127.064 22.105 126.774 22.6843V22.7808C126.388 23.2636 126.388 24.036 126.774 24.5187L133.919 29.4429C134.595 29.9256 135.753 29.3463 136.333 28.2843C136.912 27.2222 136.912 26.0636 136.14 25.5808Z" fill="#181D26"/>
<path d="M117.409 22.6849C117.119 22.1056 116.54 21.7194 115.864 21.9125L108.044 25.5815C107.271 26.0643 107.175 27.2229 107.85 28.2849C108.526 29.347 109.588 29.9263 110.264 29.4436L117.312 24.4229C117.795 23.9401 117.795 23.2643 117.409 22.6849Z" fill="#181D26"/>
<path d="M138.939 27.7021C138.842 27.7021 138.842 27.7021 138.939 27.7021C138.263 27.7021 137.684 28.2815 137.684 28.9573C137.684 29.6332 138.263 30.2125 138.842 30.2125C139.518 30.2125 140.097 29.7297 140.097 29.0539C140.097 28.378 139.615 27.7021 138.939 27.7021ZM138.939 30.0194C138.359 30.0194 137.973 29.5366 137.973 29.0539C137.973 28.5711 138.456 28.0884 138.939 28.0884C138.939 28.0884 138.939 28.0884 139.035 28.0884C139.615 28.0884 140.001 28.5711 139.904 29.1504C139.904 29.5366 139.422 30.0194 138.939 30.0194Z" fill="#181D26"/>
<path d="M139.132 29.0538C139.228 29.0538 139.228 28.9572 139.325 28.9572C139.421 28.8607 139.421 28.571 139.228 28.4745C139.132 28.3779 138.939 28.3779 138.842 28.3779C138.649 28.3779 138.552 28.3779 138.359 28.3779V29.6331H138.552V29.1503H138.746C138.939 29.1503 139.035 29.2469 139.035 29.3434C139.035 29.44 139.035 29.5365 139.132 29.6331H139.325C139.325 29.5365 139.228 29.44 139.228 29.3434C139.325 29.2469 139.325 29.0538 139.132 29.0538ZM138.842 28.9572H138.649V28.571H138.842C139.132 28.571 139.132 28.571 139.132 28.7641C139.132 28.8607 139.035 28.9572 138.842 28.9572Z" fill="#181D26"/>
</g>
<defs>
<clipPath id="clip0_6467_5491">
<rect width="140" height="40" fill="white" transform="translate(0 0.424805)"/>
</clipPath>
</defs>
</svg>
